<mxfile host="app.diagrams.net" modified="2024-03-20T03:35:22.066Z" agent="Mozilla/5.0 (Windows NT 10.0; Win64; x64) AppleWebKit/537.36 (KHTML, like Gecko) Chrome/122.0.0.0 Safari/537.36" etag="FNMzyYwEkszAOnfSAJ5n" version="24.0.7" type="github">
  <diagram id="C5RBs43oDa-KdzZeNtuy" name="Page-1">
    <mxGraphModel dx="1642" dy="675" grid="1" gridSize="10" guides="1" tooltips="1" connect="1" arrows="1" fold="1" page="1" pageScale="1" pageWidth="827" pageHeight="1169" math="0" shadow="0">
      <root>
        <mxCell id="WIyWlLk6GJQsqaUBKTNV-0" />
        <mxCell id="WIyWlLk6GJQsqaUBKTNV-1" parent="WIyWlLk6GJQsqaUBKTNV-0" />
        <mxCell id="DJcuCKskR1AiQIjLE1cL-13" style="edgeStyle=orthogonalEdgeStyle;rounded=0;orthogonalLoop=1;jettySize=auto;html=1;exitX=0.5;exitY=1;exitDx=0;exitDy=0;entryX=0.5;entryY=0;entryDx=0;entryDy=0;" edge="1" parent="WIyWlLk6GJQsqaUBKTNV-1" source="DJcuCKskR1AiQIjLE1cL-1" target="DJcuCKskR1AiQIjLE1cL-4">
          <mxGeometry relative="1" as="geometry" />
        </mxCell>
        <mxCell id="DJcuCKskR1AiQIjLE1cL-1" value="&lt;span style=&quot;font-size: 18px;&quot;&gt;&lt;b&gt;霹靂燈運作邏輯&lt;/b&gt;&lt;/span&gt;" style="rounded=1;whiteSpace=wrap;html=1;fontSize=12;glass=0;strokeWidth=1;shadow=0;fillColor=#FF9933;" vertex="1" parent="WIyWlLk6GJQsqaUBKTNV-1">
          <mxGeometry x="283" y="20" width="130" height="40" as="geometry" />
        </mxCell>
        <mxCell id="DJcuCKskR1AiQIjLE1cL-7" style="edgeStyle=orthogonalEdgeStyle;rounded=0;orthogonalLoop=1;jettySize=auto;html=1;exitX=0.5;exitY=1;exitDx=0;exitDy=0;entryX=0.5;entryY=0;entryDx=0;entryDy=0;" edge="1" parent="WIyWlLk6GJQsqaUBKTNV-1" source="DJcuCKskR1AiQIjLE1cL-2" target="DJcuCKskR1AiQIjLE1cL-6">
          <mxGeometry relative="1" as="geometry" />
        </mxCell>
        <mxCell id="DJcuCKskR1AiQIjLE1cL-31" style="edgeStyle=orthogonalEdgeStyle;rounded=0;orthogonalLoop=1;jettySize=auto;html=1;exitX=1;exitY=0.5;exitDx=0;exitDy=0;entryX=0;entryY=0.5;entryDx=0;entryDy=0;" edge="1" parent="WIyWlLk6GJQsqaUBKTNV-1" source="DJcuCKskR1AiQIjLE1cL-2" target="DJcuCKskR1AiQIjLE1cL-21">
          <mxGeometry relative="1" as="geometry" />
        </mxCell>
        <mxCell id="DJcuCKskR1AiQIjLE1cL-2" value="&lt;font style=&quot;font-size: 14px;&quot;&gt;led &amp;lt; ledCount&lt;/font&gt;" style="rhombus;whiteSpace=wrap;html=1;" vertex="1" parent="WIyWlLk6GJQsqaUBKTNV-1">
          <mxGeometry x="283" y="210" width="130" height="70" as="geometry" />
        </mxCell>
        <mxCell id="DJcuCKskR1AiQIjLE1cL-5" style="edgeStyle=orthogonalEdgeStyle;rounded=0;orthogonalLoop=1;jettySize=auto;html=1;exitX=0.5;exitY=1;exitDx=0;exitDy=0;entryX=0.5;entryY=0;entryDx=0;entryDy=0;" edge="1" parent="WIyWlLk6GJQsqaUBKTNV-1" source="DJcuCKskR1AiQIjLE1cL-4" target="DJcuCKskR1AiQIjLE1cL-2">
          <mxGeometry relative="1" as="geometry" />
        </mxCell>
        <mxCell id="DJcuCKskR1AiQIjLE1cL-4" value="&lt;font style=&quot;font-size: 14px;&quot;&gt;int led = 0&lt;/font&gt;" style="rounded=1;whiteSpace=wrap;html=1;fontSize=12;glass=0;strokeWidth=1;shadow=0;" vertex="1" parent="WIyWlLk6GJQsqaUBKTNV-1">
          <mxGeometry x="288" y="120" width="120" height="40" as="geometry" />
        </mxCell>
        <mxCell id="DJcuCKskR1AiQIjLE1cL-9" style="edgeStyle=orthogonalEdgeStyle;rounded=0;orthogonalLoop=1;jettySize=auto;html=1;exitX=0.5;exitY=1;exitDx=0;exitDy=0;" edge="1" parent="WIyWlLk6GJQsqaUBKTNV-1" source="DJcuCKskR1AiQIjLE1cL-6">
          <mxGeometry relative="1" as="geometry">
            <mxPoint x="347.52941176470586" y="410" as="targetPoint" />
          </mxGeometry>
        </mxCell>
        <mxCell id="DJcuCKskR1AiQIjLE1cL-6" value="&lt;span style=&quot;font-size: 14px;&quot;&gt;led_array[led] &lt;/span&gt;&lt;font style=&quot;font-size: 18px;&quot;&gt;亮&lt;/font&gt;" style="rounded=1;whiteSpace=wrap;html=1;fontSize=12;glass=0;strokeWidth=1;shadow=0;" vertex="1" parent="WIyWlLk6GJQsqaUBKTNV-1">
          <mxGeometry x="288" y="330" width="120" height="40" as="geometry" />
        </mxCell>
        <mxCell id="DJcuCKskR1AiQIjLE1cL-8" value="&lt;font style=&quot;font-size: 18px;&quot;&gt;True&lt;/font&gt;" style="text;html=1;align=center;verticalAlign=middle;resizable=0;points=[];autosize=1;strokeColor=none;fillColor=none;" vertex="1" parent="WIyWlLk6GJQsqaUBKTNV-1">
          <mxGeometry x="290" y="285" width="60" height="40" as="geometry" />
        </mxCell>
        <mxCell id="DJcuCKskR1AiQIjLE1cL-10" value="&lt;span style=&quot;font-size: 14px;&quot;&gt;delay(等待)&lt;/span&gt;&lt;div&gt;&lt;span style=&quot;font-size: 14px;&quot;&gt;outputValue毫秒&lt;/span&gt;&lt;br&gt;&lt;/div&gt;" style="rounded=1;whiteSpace=wrap;html=1;fontSize=12;glass=0;strokeWidth=1;shadow=0;" vertex="1" parent="WIyWlLk6GJQsqaUBKTNV-1">
          <mxGeometry x="288" y="410" width="120" height="40" as="geometry" />
        </mxCell>
        <mxCell id="DJcuCKskR1AiQIjLE1cL-15" style="edgeStyle=orthogonalEdgeStyle;rounded=0;orthogonalLoop=1;jettySize=auto;html=1;exitX=0.5;exitY=1;exitDx=0;exitDy=0;entryX=0.5;entryY=0;entryDx=0;entryDy=0;" edge="1" parent="WIyWlLk6GJQsqaUBKTNV-1" source="DJcuCKskR1AiQIjLE1cL-11" target="DJcuCKskR1AiQIjLE1cL-14">
          <mxGeometry relative="1" as="geometry" />
        </mxCell>
        <mxCell id="DJcuCKskR1AiQIjLE1cL-11" value="&lt;span style=&quot;font-size: 14px;&quot;&gt;led_array[led] &lt;/span&gt;&lt;span style=&quot;font-size: 18px;&quot;&gt;暗&lt;/span&gt;" style="rounded=1;whiteSpace=wrap;html=1;fontSize=12;glass=0;strokeWidth=1;shadow=0;" vertex="1" parent="WIyWlLk6GJQsqaUBKTNV-1">
          <mxGeometry x="288" y="490" width="120" height="40" as="geometry" />
        </mxCell>
        <mxCell id="DJcuCKskR1AiQIjLE1cL-12" style="edgeStyle=orthogonalEdgeStyle;rounded=0;orthogonalLoop=1;jettySize=auto;html=1;entryX=0.5;entryY=0;entryDx=0;entryDy=0;" edge="1" parent="WIyWlLk6GJQsqaUBKTNV-1" target="DJcuCKskR1AiQIjLE1cL-11">
          <mxGeometry relative="1" as="geometry">
            <mxPoint x="357.52941176470586" y="420" as="targetPoint" />
            <mxPoint x="348" y="450" as="sourcePoint" />
            <Array as="points">
              <mxPoint x="358" y="450" />
              <mxPoint x="348" y="450" />
            </Array>
          </mxGeometry>
        </mxCell>
        <mxCell id="DJcuCKskR1AiQIjLE1cL-16" style="edgeStyle=orthogonalEdgeStyle;rounded=0;orthogonalLoop=1;jettySize=auto;html=1;exitX=0;exitY=0.5;exitDx=0;exitDy=0;entryX=0;entryY=0.5;entryDx=0;entryDy=0;" edge="1" parent="WIyWlLk6GJQsqaUBKTNV-1" source="DJcuCKskR1AiQIjLE1cL-14" target="DJcuCKskR1AiQIjLE1cL-2">
          <mxGeometry relative="1" as="geometry" />
        </mxCell>
        <mxCell id="DJcuCKskR1AiQIjLE1cL-14" value="&lt;font style=&quot;font-size: 14px;&quot;&gt;led++;&lt;/font&gt;" style="rounded=1;whiteSpace=wrap;html=1;fontSize=12;glass=0;strokeWidth=1;shadow=0;" vertex="1" parent="WIyWlLk6GJQsqaUBKTNV-1">
          <mxGeometry x="288" y="570" width="120" height="40" as="geometry" />
        </mxCell>
        <mxCell id="DJcuCKskR1AiQIjLE1cL-18" style="edgeStyle=orthogonalEdgeStyle;rounded=0;orthogonalLoop=1;jettySize=auto;html=1;exitX=0.5;exitY=1;exitDx=0;exitDy=0;entryX=0.5;entryY=0;entryDx=0;entryDy=0;" edge="1" parent="WIyWlLk6GJQsqaUBKTNV-1" source="DJcuCKskR1AiQIjLE1cL-19" target="DJcuCKskR1AiQIjLE1cL-23">
          <mxGeometry relative="1" as="geometry" />
        </mxCell>
        <mxCell id="DJcuCKskR1AiQIjLE1cL-33" style="edgeStyle=orthogonalEdgeStyle;rounded=0;orthogonalLoop=1;jettySize=auto;html=1;exitX=1;exitY=0.5;exitDx=0;exitDy=0;entryX=1;entryY=0.5;entryDx=0;entryDy=0;" edge="1" parent="WIyWlLk6GJQsqaUBKTNV-1" source="DJcuCKskR1AiQIjLE1cL-19" target="DJcuCKskR1AiQIjLE1cL-4">
          <mxGeometry relative="1" as="geometry">
            <mxPoint x="730" y="50" as="targetPoint" />
            <Array as="points">
              <mxPoint x="710" y="245" />
              <mxPoint x="710" y="100" />
              <mxPoint x="440" y="100" />
              <mxPoint x="440" y="140" />
            </Array>
          </mxGeometry>
        </mxCell>
        <mxCell id="DJcuCKskR1AiQIjLE1cL-19" value="&lt;font style=&quot;font-size: 14px;&quot;&gt;led &amp;gt;= 0&lt;/font&gt;" style="rhombus;whiteSpace=wrap;html=1;" vertex="1" parent="WIyWlLk6GJQsqaUBKTNV-1">
          <mxGeometry x="509.94" y="210" width="130" height="70" as="geometry" />
        </mxCell>
        <mxCell id="DJcuCKskR1AiQIjLE1cL-20" style="edgeStyle=orthogonalEdgeStyle;rounded=0;orthogonalLoop=1;jettySize=auto;html=1;exitX=0.5;exitY=1;exitDx=0;exitDy=0;entryX=0.5;entryY=0;entryDx=0;entryDy=0;" edge="1" parent="WIyWlLk6GJQsqaUBKTNV-1" source="DJcuCKskR1AiQIjLE1cL-21" target="DJcuCKskR1AiQIjLE1cL-19">
          <mxGeometry relative="1" as="geometry" />
        </mxCell>
        <mxCell id="DJcuCKskR1AiQIjLE1cL-21" value="&lt;font style=&quot;font-size: 14px;&quot;&gt;int led = ledCount-1&lt;/font&gt;" style="rounded=1;whiteSpace=wrap;html=1;fontSize=12;glass=0;strokeWidth=1;shadow=0;" vertex="1" parent="WIyWlLk6GJQsqaUBKTNV-1">
          <mxGeometry x="507.41" y="120" width="135.06" height="40" as="geometry" />
        </mxCell>
        <mxCell id="DJcuCKskR1AiQIjLE1cL-22" style="edgeStyle=orthogonalEdgeStyle;rounded=0;orthogonalLoop=1;jettySize=auto;html=1;exitX=0.5;exitY=1;exitDx=0;exitDy=0;" edge="1" parent="WIyWlLk6GJQsqaUBKTNV-1" source="DJcuCKskR1AiQIjLE1cL-23">
          <mxGeometry relative="1" as="geometry">
            <mxPoint x="574.4694117647059" y="410" as="targetPoint" />
          </mxGeometry>
        </mxCell>
        <mxCell id="DJcuCKskR1AiQIjLE1cL-23" value="&lt;span style=&quot;font-size: 14px;&quot;&gt;led_array[led] &lt;/span&gt;&lt;font style=&quot;font-size: 18px;&quot;&gt;亮&lt;/font&gt;" style="rounded=1;whiteSpace=wrap;html=1;fontSize=12;glass=0;strokeWidth=1;shadow=0;" vertex="1" parent="WIyWlLk6GJQsqaUBKTNV-1">
          <mxGeometry x="514.94" y="330" width="120" height="40" as="geometry" />
        </mxCell>
        <mxCell id="DJcuCKskR1AiQIjLE1cL-24" value="&lt;span style=&quot;font-size: 18px;&quot;&gt;True&lt;/span&gt;" style="text;html=1;align=center;verticalAlign=middle;resizable=0;points=[];autosize=1;strokeColor=none;fillColor=none;" vertex="1" parent="WIyWlLk6GJQsqaUBKTNV-1">
          <mxGeometry x="520" y="285" width="60" height="40" as="geometry" />
        </mxCell>
        <mxCell id="DJcuCKskR1AiQIjLE1cL-25" value="&lt;span style=&quot;font-size: 14px;&quot;&gt;delay(等待)&lt;/span&gt;&lt;div&gt;&lt;span style=&quot;font-size: 14px;&quot;&gt;outputValue毫秒&lt;/span&gt;&lt;br&gt;&lt;/div&gt;" style="rounded=1;whiteSpace=wrap;html=1;fontSize=12;glass=0;strokeWidth=1;shadow=0;" vertex="1" parent="WIyWlLk6GJQsqaUBKTNV-1">
          <mxGeometry x="514.94" y="410" width="120" height="40" as="geometry" />
        </mxCell>
        <mxCell id="DJcuCKskR1AiQIjLE1cL-26" style="edgeStyle=orthogonalEdgeStyle;rounded=0;orthogonalLoop=1;jettySize=auto;html=1;exitX=0.5;exitY=1;exitDx=0;exitDy=0;entryX=0.5;entryY=0;entryDx=0;entryDy=0;" edge="1" parent="WIyWlLk6GJQsqaUBKTNV-1" source="DJcuCKskR1AiQIjLE1cL-27" target="DJcuCKskR1AiQIjLE1cL-30">
          <mxGeometry relative="1" as="geometry" />
        </mxCell>
        <mxCell id="DJcuCKskR1AiQIjLE1cL-27" value="&lt;span style=&quot;font-size: 14px;&quot;&gt;led_array[led] &lt;/span&gt;&lt;span style=&quot;font-size: 18px;&quot;&gt;暗&lt;/span&gt;" style="rounded=1;whiteSpace=wrap;html=1;fontSize=12;glass=0;strokeWidth=1;shadow=0;" vertex="1" parent="WIyWlLk6GJQsqaUBKTNV-1">
          <mxGeometry x="514.94" y="490" width="120" height="40" as="geometry" />
        </mxCell>
        <mxCell id="DJcuCKskR1AiQIjLE1cL-28" style="edgeStyle=orthogonalEdgeStyle;rounded=0;orthogonalLoop=1;jettySize=auto;html=1;entryX=0.5;entryY=0;entryDx=0;entryDy=0;" edge="1" parent="WIyWlLk6GJQsqaUBKTNV-1" target="DJcuCKskR1AiQIjLE1cL-27">
          <mxGeometry relative="1" as="geometry">
            <mxPoint x="584.4694117647059" y="420" as="targetPoint" />
            <mxPoint x="574.94" y="450" as="sourcePoint" />
            <Array as="points">
              <mxPoint x="584.94" y="450" />
              <mxPoint x="574.94" y="450" />
            </Array>
          </mxGeometry>
        </mxCell>
        <mxCell id="DJcuCKskR1AiQIjLE1cL-29" style="edgeStyle=orthogonalEdgeStyle;rounded=0;orthogonalLoop=1;jettySize=auto;html=1;exitX=0;exitY=0.5;exitDx=0;exitDy=0;entryX=0;entryY=0.5;entryDx=0;entryDy=0;" edge="1" parent="WIyWlLk6GJQsqaUBKTNV-1" source="DJcuCKskR1AiQIjLE1cL-30" target="DJcuCKskR1AiQIjLE1cL-19">
          <mxGeometry relative="1" as="geometry" />
        </mxCell>
        <mxCell id="DJcuCKskR1AiQIjLE1cL-30" value="&lt;font style=&quot;font-size: 14px;&quot;&gt;led--;&lt;/font&gt;" style="rounded=1;whiteSpace=wrap;html=1;fontSize=12;glass=0;strokeWidth=1;shadow=0;" vertex="1" parent="WIyWlLk6GJQsqaUBKTNV-1">
          <mxGeometry x="514.94" y="570" width="120" height="40" as="geometry" />
        </mxCell>
        <mxCell id="DJcuCKskR1AiQIjLE1cL-32" value="&lt;font style=&quot;font-size: 18px;&quot;&gt;False&lt;/font&gt;" style="text;html=1;align=center;verticalAlign=middle;resizable=0;points=[];autosize=1;strokeColor=none;fillColor=none;" vertex="1" parent="WIyWlLk6GJQsqaUBKTNV-1">
          <mxGeometry x="393" y="210" width="70" height="40" as="geometry" />
        </mxCell>
        <mxCell id="DJcuCKskR1AiQIjLE1cL-34" value="&lt;font style=&quot;font-size: 18px;&quot;&gt;False&lt;/font&gt;" style="text;html=1;align=center;verticalAlign=middle;resizable=0;points=[];autosize=1;strokeColor=none;fillColor=none;" vertex="1" parent="WIyWlLk6GJQsqaUBKTNV-1">
          <mxGeometry x="627.47" y="200" width="70" height="40" as="geometry" />
        </mxCell>
      </root>
    </mxGraphModel>
  </diagram>
</mxfile>
